<svg width="71" height="19" viewBox="0 0 71 19" fill="none" xmlns="http://www.w3.org/2000/svg">
<path d="M7.00666 0.749893C7.38623 0.275888 7.96058 0 8.56783 0H69C70.1046 0 71 0.895431 71 2V17C71 18.1046 70.1046 19 69 19H8.56783C7.96058 19 7.38622 18.7241 7.00666 18.2501L1.00102 10.7501C0.41591 10.0194 0.415911 8.9806 1.00102 8.24989L7.00666 0.749893Z" fill="#5A47AB"/>
<path d="M21.235 5.00007H12.765C12.6698 4.99875 12.5753 5.01619 12.4868 5.05141C12.3983 5.08663 12.3177 5.13893 12.2494 5.20533C12.1812 5.27172 12.1267 5.35091 12.089 5.43837C12.0514 5.52584 12.0313 5.61986 12.03 5.71507V14.2851C12.0313 14.3803 12.0514 14.4743 12.089 14.5618C12.1267 14.6492 12.1812 14.7284 12.2494 14.7948C12.3177 14.8612 12.3983 14.9135 12.4868 14.9487C12.5753 14.9839 12.6698 15.0014 12.765 15.0001H21.235C21.3302 15.0014 21.4248 14.9839 21.5132 14.9487C21.6017 14.9135 21.6824 14.8612 21.7506 14.7948C21.8189 14.7284 21.8734 14.6492 21.911 14.5618C21.9487 14.4743 21.9687 14.3803 21.97 14.2851V5.71507C21.9687 5.61986 21.9487 5.52584 21.911 5.43837C21.8734 5.35091 21.8189 5.27172 21.7506 5.20533C21.6824 5.13893 21.6017 5.08663 21.5132 5.05141C21.4248 5.01619 21.3302 4.99875 21.235 5.00007ZM15.045 13.3701H13.545V8.87007H15.045V13.3701ZM14.295 8.24007C14.0882 8.24007 13.8898 8.15789 13.7435 8.01161C13.5972 7.86533 13.515 7.66694 13.515 7.46007C13.515 7.2532 13.5972 7.0548 13.7435 6.90853C13.8898 6.76225 14.0882 6.68007 14.295 6.68007C14.4049 6.66761 14.5161 6.6785 14.6215 6.71201C14.7268 6.74553 14.8239 6.80091 14.9064 6.87455C14.9888 6.94819 15.0548 7.03841 15.1 7.13931C15.1451 7.24021 15.1685 7.34952 15.1685 7.46007C15.1685 7.57062 15.1451 7.67993 15.1 7.78083C15.0548 7.88173 14.9888 7.97195 14.9064 8.04559C14.8239 8.11922 14.7268 8.17461 14.6215 8.20813C14.5161 8.24164 14.4049 8.25253 14.295 8.24007ZM20.455 13.3701H18.955V10.9551C18.955 10.3501 18.74 9.95507 18.195 9.95507C18.0264 9.9563 17.8621 10.0092 17.7244 10.1067C17.5868 10.2041 17.4823 10.3414 17.425 10.5001C17.3859 10.6176 17.3689 10.7414 17.375 10.8651V13.3651H15.875C15.875 13.3651 15.875 9.27507 15.875 8.86507H17.375V9.50007C17.5113 9.26362 17.7095 9.06883 17.9482 8.93667C18.187 8.80451 18.4573 8.74 18.73 8.75007C19.73 8.75007 20.455 9.39507 20.455 10.7801V13.3701Z" fill="white"/>
<path d="M40.592 7.4V13H40.008V10.416H36.504V13H35.912V7.4H36.504V9.896H40.008V7.4H40.592ZM42.2998 8.792H42.8678V13H42.2998V8.792ZM42.5878 7.872C42.4705 7.872 42.3718 7.832 42.2918 7.752C42.2118 7.672 42.1718 7.576 42.1718 7.464C42.1718 7.35733 42.2118 7.264 42.2918 7.184C42.3718 7.104 42.4705 7.064 42.5878 7.064C42.7051 7.064 42.8038 7.104 42.8838 7.184C42.9638 7.25867 43.0038 7.34933 43.0038 7.456C43.0038 7.57333 42.9638 7.672 42.8838 7.752C42.8038 7.832 42.7051 7.872 42.5878 7.872ZM44.9923 9.616C45.1256 9.33333 45.3229 9.12 45.5843 8.976C45.8509 8.832 46.1789 8.76 46.5683 8.76V9.312L46.4323 9.304C45.9896 9.304 45.6429 9.44 45.3923 9.712C45.1416 9.984 45.0163 10.3653 45.0163 10.856V13H44.4483V8.792H44.9923V9.616ZM51.2216 11.072H47.7016C47.7336 11.5093 47.9016 11.864 48.2056 12.136C48.5096 12.4027 48.8936 12.536 49.3576 12.536C49.619 12.536 49.859 12.4907 50.0776 12.4C50.2963 12.304 50.4856 12.1653 50.6456 11.984L50.9656 12.352C50.779 12.576 50.5443 12.7467 50.2616 12.864C49.9843 12.9813 49.6776 13.04 49.3416 13.04C48.9096 13.04 48.5256 12.9493 48.1896 12.768C47.859 12.5813 47.6003 12.3253 47.4136 12C47.227 11.6747 47.1336 11.3067 47.1336 10.896C47.1336 10.4853 47.2216 10.1173 47.3976 9.792C47.579 9.46667 47.8243 9.21333 48.1336 9.032C48.4483 8.85067 48.8003 8.76 49.1896 8.76C49.579 8.76 49.9283 8.85067 50.2376 9.032C50.547 9.21333 50.7896 9.46667 50.9656 9.792C51.1416 10.112 51.2296 10.48 51.2296 10.896L51.2216 11.072ZM49.1896 9.248C48.7843 9.248 48.443 9.37867 48.1656 9.64C47.8936 9.896 47.739 10.232 47.7016 10.648H50.6856C50.6483 10.232 50.491 9.896 50.2136 9.64C49.9416 9.37867 49.6003 9.248 49.1896 9.248ZM60.4155 7.4V13H59.8475V8.52L57.6475 12.288H57.3675L55.1675 8.544V13H54.5995V7.4H55.0875L57.5195 11.552L59.9275 7.4H60.4155ZM65.7841 11.072H62.2641C62.2961 11.5093 62.4641 11.864 62.7681 12.136C63.0721 12.4027 63.4561 12.536 63.9201 12.536C64.1815 12.536 64.4215 12.4907 64.6401 12.4C64.8588 12.304 65.0481 12.1653 65.2081 11.984L65.5281 12.352C65.3415 12.576 65.1068 12.7467 64.8241 12.864C64.5468 12.9813 64.2401 13.04 63.9041 13.04C63.4721 13.04 63.0881 12.9493 62.7521 12.768C62.4215 12.5813 62.1628 12.3253 61.9761 12C61.7895 11.6747 61.6961 11.3067 61.6961 10.896C61.6961 10.4853 61.7841 10.1173 61.9601 9.792C62.1415 9.46667 62.3868 9.21333 62.6961 9.032C63.0108 8.85067 63.3628 8.76 63.7521 8.76C64.1415 8.76 64.4908 8.85067 64.8001 9.032C65.1095 9.21333 65.3521 9.46667 65.5281 9.792C65.7041 10.112 65.7921 10.48 65.7921 10.896L65.7841 11.072ZM63.7521 9.248C63.3468 9.248 63.0055 9.37867 62.7281 9.64C62.4561 9.896 62.3015 10.232 62.2641 10.648H65.2481C65.2108 10.232 65.0535 9.896 64.7761 9.64C64.5041 9.37867 64.1628 9.248 63.7521 9.248Z" fill="white"/>
</svg>
